<?xml version="1.0" encoding="UTF-8"?>
<!DOCTYPE svg PUBLIC "-//W3C//DTD SVG 1.1//EN" "http://www.w3.org/Graphics/SVG/1.1/DTD/svg11.dtd">
<svg xmlns="http://www.w3.org/2000/svg" version="1.1" width="512px" height="512px" style="shape-rendering:geometricPrecision; text-rendering:geometricPrecision; image-rendering:optimizeQuality; fill-rule:evenodd; clip-rule:evenodd" xmlns:xlink="http://www.w3.org/1999/xlink">
<g><path style="opacity:0.992" fill="#fefefe" d="M 232.5,-0.5 C 247.833,-0.5 263.167,-0.5 278.5,-0.5C 368.144,10.3879 435.644,54.7213 481,132.5C 497.695,163.971 507.861,197.304 511.5,232.5C 511.5,247.833 511.5,263.167 511.5,278.5C 500.612,368.144 456.279,435.644 378.5,481C 347.029,497.695 313.696,507.861 278.5,511.5C 263.167,511.5 247.833,511.5 232.5,511.5C 142.856,500.612 75.3562,456.279 30,378.5C 13.3053,347.029 3.1386,313.696 -0.5,278.5C -0.5,263.167 -0.5,247.833 -0.5,232.5C 10.3875,142.857 54.7208,75.3573 132.5,30C 163.971,13.3053 197.304,3.1386 232.5,-0.5 Z"/></g>
<g><path style="opacity:1" fill="#f14336" d="M 140.5,215.5 C 118.167,197.5 95.8333,179.5 73.5,161.5C 112.392,91.943 171.892,54.943 252,50.5C 302.248,50.4127 346.748,66.0793 385.5,97.5C 364.63,115.868 343.297,133.702 321.5,151C 320.167,151.667 318.833,151.667 317.5,151C 269.596,125.177 223.596,128.177 179.5,160C 161.45,174.927 148.45,193.427 140.5,215.5 Z"/></g>
<g><path style="opacity:1" fill="#fabb02" d="M 73.5,161.5 C 95.8333,179.5 118.167,197.5 140.5,215.5C 130.873,243.249 131.207,270.916 141.5,298.5C 119.185,316.152 97.1848,334.152 75.5,352.5C 54.5615,314.139 46.7282,273.139 52,229.5C 55.0593,205.491 62.2259,182.824 73.5,161.5 Z"/></g>
<g><path style="opacity:1" fill="#518ef7" d="M 260.5,217.5 C 326.167,217.5 391.833,217.5 457.5,217.5C 468.424,292.902 446.424,356.735 391.5,409C 388.935,411.08 386.268,412.913 383.5,414.5C 361.185,396.848 339.185,378.848 317.5,360.5C 341.651,345.672 358.984,325.005 369.5,298.5C 333.337,297.502 297.004,297.168 260.5,297.5C 260.5,270.833 260.5,244.167 260.5,217.5 Z"/></g>
<g><path style="opacity:1" fill="#8cb4fa" d="M 260.5,217.5 C 260.5,244.167 260.5,270.833 260.5,297.5C 297.004,297.168 333.337,297.502 369.5,298.5C 332.833,298.5 296.167,298.5 259.5,298.5C 259.169,271.328 259.502,244.328 260.5,217.5 Z"/></g>
<g><path style="opacity:1" fill="#29b446" d="M 141.5,298.5 C 164.897,351.884 205.897,378.051 264.5,377C 283.388,375.202 301.055,369.702 317.5,360.5C 339.185,378.848 361.185,396.848 383.5,414.5C 361.016,433.411 335.349,446.578 306.5,454C 226.435,471.451 158.268,450.618 102,391.5C 91.6623,379.481 82.829,366.481 75.5,352.5C 97.1848,334.152 119.185,316.152 141.5,298.5 Z"/></g>
</svg>
