<svg id="svg" version="1.1" xmlns="http://www.w3.org/2000/svg" xmlns:xlink="http://www.w3.org/1999/xlink" width="400" height="400" viewBox="0, 0, 400,400"><g id="svgg"><path id="path0" d="M186.767 16.564 C 186.675 16.654,184.440 16.933,181.800 17.184 C 169.530 18.352,157.446 20.697,147.600 23.821 C 138.028 26.859,134.123 28.270,127.400 31.122 C 121.420 33.658,109.288 39.828,106.807 41.595 C 106.185 42.038,105.567 42.400,105.432 42.400 C 104.729 42.400,88.235 53.731,86.800 55.200 C 86.690 55.312,85.941 55.896,85.135 56.496 C 84.329 57.097,83.427 57.816,83.130 58.094 C 82.834 58.372,81.334 59.678,79.796 60.996 C 72.533 67.220,59.220 81.086,56.023 85.757 C 55.706 86.221,55.343 86.690,55.216 86.800 C 53.882 87.957,45.387 100.294,41.947 106.068 C 37.231 113.985,30.049 129.205,27.635 136.400 C 27.155 137.830,26.591 139.313,26.381 139.695 C 26.171 140.077,26.000 140.741,26.000 141.171 C 26.000 141.601,25.820 142.064,25.600 142.200 C 25.380 142.336,25.200 142.799,25.200 143.229 C 25.200 143.659,25.038 144.323,24.839 144.705 C 24.640 145.087,24.260 146.210,23.993 147.200 C 23.726 148.190,23.369 149.450,23.200 150.000 C 23.031 150.550,22.707 151.720,22.479 152.600 C 22.252 153.480,21.856 155.010,21.600 156.000 C 20.372 160.743,19.810 163.549,18.416 171.900 C 18.001 174.388,17.421 179.397,16.795 185.916 C 16.285 191.228,16.285 208.772,16.795 214.084 C 17.430 220.696,18.003 225.625,18.434 228.200 C 19.306 233.400,20.367 239.023,20.830 240.900 C 21.822 244.919,22.839 248.824,23.200 250.000 C 23.369 250.550,23.726 251.810,23.993 252.800 C 24.260 253.790,24.640 254.913,24.839 255.295 C 25.038 255.677,25.200 256.341,25.200 256.771 C 25.200 257.201,25.380 257.664,25.600 257.800 C 25.820 257.936,26.000 258.476,26.000 259.000 C 26.000 259.524,26.144 260.042,26.321 260.151 C 26.497 260.260,26.893 261.272,27.200 262.400 C 27.507 263.528,27.903 264.540,28.079 264.649 C 28.256 264.758,28.400 265.104,28.400 265.418 C 28.400 266.707,36.883 285.379,37.997 286.542 C 38.177 286.730,39.478 285.920,40.887 284.742 C 44.265 281.918,57.869 270.769,66.198 264.000 C 73.174 258.330,82.601 250.612,83.600 249.754 C 84.150 249.281,87.210 246.776,90.400 244.187 C 93.590 241.599,96.431 239.270,96.714 239.012 C 97.192 238.576,96.219 234.534,94.785 231.000 C 94.606 230.560,94.349 229.660,94.212 229.000 C 94.076 228.340,93.782 227.080,93.560 226.200 C 91.325 217.345,90.619 211.059,90.619 200.000 C 90.619 190.066,91.162 184.347,92.805 177.000 C 93.051 175.900,93.349 174.324,93.468 173.497 C 93.587 172.671,93.845 171.895,94.042 171.774 C 94.239 171.652,94.400 171.170,94.400 170.703 C 94.400 169.937,95.528 166.247,96.389 164.200 C 96.574 163.760,97.482 161.465,98.406 159.100 C 111.524 125.557,141.278 100.755,178.200 92.588 C 189.665 90.052,204.736 89.809,218.200 91.942 C 230.174 93.840,246.556 99.838,255.938 105.761 C 256.843 106.332,257.682 106.800,257.802 106.800 C 257.977 106.800,266.350 100.017,275.800 92.218 C 276.680 91.492,279.650 89.063,282.400 86.822 C 285.150 84.580,287.760 82.440,288.200 82.068 C 288.640 81.695,290.890 79.866,293.200 78.002 C 295.510 76.138,297.850 74.223,298.400 73.746 C 298.950 73.270,301.650 71.049,304.400 68.812 C 307.150 66.576,309.760 64.440,310.200 64.067 C 310.640 63.693,312.305 62.335,313.900 61.049 C 315.495 59.762,316.800 58.566,316.800 58.391 C 316.800 57.990,315.071 56.548,310.791 53.377 C 309.586 52.485,307.610 51.018,306.400 50.119 C 303.884 48.249,294.911 42.400,294.558 42.400 C 294.429 42.400,293.846 42.061,293.262 41.647 C 286.344 36.740,263.344 26.720,251.800 23.584 C 247.462 22.406,240.688 20.704,239.000 20.367 C 237.900 20.148,236.100 19.787,235.000 19.566 C 223.712 17.295,213.629 16.410,198.967 16.405 C 192.348 16.402,186.858 16.474,186.767 16.564 " stroke="none" fill="#f66b24" fill-rule="evenodd"></path><path id="path1" d="M204.098 201.900 L 204.200 238.200 253.150 238.302 L 302.099 238.403 301.871 239.545 C 301.372 242.041,296.544 251.835,292.942 257.660 C 285.009 270.487,272.948 282.862,260.146 291.311 L 255.291 294.514 258.346 296.927 C 260.025 298.254,261.490 299.451,261.600 299.587 C 261.710 299.723,266.300 303.494,271.800 307.967 C 277.300 312.440,282.610 316.775,283.600 317.601 C 286.633 320.132,302.153 332.809,308.038 337.562 C 310.327 339.411,312.839 341.528,313.620 342.265 L 315.041 343.607 319.220 340.118 C 327.846 332.917,340.025 319.972,346.848 310.751 C 352.059 303.709,353.202 302.043,356.426 296.782 C 367.829 278.178,375.883 258.142,379.973 238.200 C 380.243 236.880,380.614 235.080,380.797 234.200 C 381.461 230.995,382.365 224.751,383.258 217.200 C 383.913 211.652,383.896 188.840,383.232 183.000 C 382.956 180.580,382.453 176.710,382.112 174.400 C 381.772 172.090,381.375 169.389,381.231 168.398 C 381.087 167.407,380.830 166.372,380.661 166.098 C 380.416 165.703,362.118 165.600,292.174 165.600 L 203.996 165.600 204.098 201.900 " stroke="none" fill="#548cfb" fill-rule="evenodd"></path><path id="path2" d="M90.788 243.843 C 87.384 246.617,84.150 249.275,83.600 249.750 C 82.651 250.569,74.228 257.468,66.203 264.000 C 64.175 265.650,59.220 269.700,55.191 273.000 C 51.161 276.300,45.884 280.620,43.464 282.600 C 37.968 287.096,37.970 287.092,39.184 289.280 C 65.446 336.611,114.364 371.820,166.300 380.769 C 173.565 382.021,174.592 382.163,184.029 383.214 C 188.972 383.764,211.035 383.763,215.986 383.212 C 231.355 381.501,238.875 380.100,250.800 376.727 C 271.437 370.889,293.769 359.777,310.400 347.071 C 315.708 343.015,315.858 343.947,309.000 338.369 C 299.859 330.935,285.981 319.588,283.600 317.601 C 282.610 316.775,277.300 312.440,271.800 307.967 C 266.300 303.494,261.710 299.727,261.600 299.596 C 260.994 298.876,255.649 294.800,255.311 294.800 C 255.091 294.800,252.500 296.018,249.555 297.506 C 246.610 298.995,243.390 300.539,242.400 300.937 C 241.410 301.336,240.240 301.811,239.800 301.994 C 237.071 303.125,233.808 304.234,230.400 305.189 C 229.410 305.466,228.150 305.830,227.600 305.997 C 225.802 306.543,221.249 307.459,215.800 308.370 C 207.342 309.785,192.592 309.783,184.200 308.366 C 178.061 307.330,174.283 306.488,168.200 304.799 C 165.798 304.133,162.817 303.082,160.000 301.909 C 159.450 301.680,158.640 301.355,158.200 301.185 C 153.171 299.252,139.275 291.572,136.506 289.194 C 136.117 288.861,135.170 288.144,134.400 287.600 C 128.378 283.348,117.997 273.172,113.600 267.213 C 113.050 266.467,112.225 265.394,111.767 264.829 C 108.133 260.341,101.845 249.235,99.069 242.400 C 97.259 237.943,98.235 237.773,90.788 243.843 " stroke="none" fill="#2cb444" fill-rule="evenodd"></path><path id="path3" d="M178.300 0.275 C 176.375 0.361,174.800 0.604,174.800 0.816 C 174.800 1.027,173.461 1.200,171.824 1.200 C 170.187 1.200,168.736 1.380,168.600 1.600 C 168.464 1.820,167.463 2.000,166.376 2.000 C 165.289 2.000,164.400 2.180,164.400 2.400 C 164.400 2.620,163.410 2.800,162.200 2.800 C 160.990 2.800,160.000 2.980,160.000 3.200 C 160.000 3.420,159.201 3.600,158.224 3.600 C 157.247 3.600,156.336 3.780,156.200 4.000 C 156.064 4.220,155.243 4.400,154.376 4.400 C 153.509 4.400,152.800 4.580,152.800 4.800 C 152.800 5.020,152.080 5.200,151.200 5.200 C 150.320 5.200,149.600 5.380,149.600 5.600 C 149.600 5.820,148.880 6.000,148.000 6.000 C 147.120 6.000,146.400 6.180,146.400 6.400 C 146.400 6.620,145.860 6.800,145.200 6.800 C 144.540 6.800,144.000 6.980,144.000 7.200 C 144.000 7.420,143.370 7.600,142.600 7.600 C 141.830 7.600,141.200 7.780,141.200 8.000 C 141.200 8.220,140.771 8.400,140.246 8.400 C 139.355 8.400,136.018 9.285,134.200 10.003 C 133.760 10.177,132.770 10.536,132.000 10.800 C 130.307 11.382,128.840 11.971,127.905 12.447 C 127.523 12.641,126.848 12.800,126.405 12.800 C 125.962 12.800,125.600 12.980,125.600 13.200 C 125.600 13.420,125.240 13.600,124.800 13.600 C 124.360 13.600,124.000 13.780,124.000 14.000 C 124.000 14.220,123.561 14.400,123.024 14.400 C 122.487 14.400,121.936 14.580,121.800 14.800 C 121.664 15.020,121.203 15.200,120.776 15.200 C 120.349 15.200,120.000 15.380,120.000 15.600 C 120.000 15.820,119.640 16.000,119.200 16.000 C 118.760 16.000,118.400 16.180,118.400 16.400 C 118.400 16.620,118.128 16.800,117.795 16.800 C 117.207 16.800,116.782 16.967,114.905 17.938 C 114.413 18.192,113.738 18.400,113.405 18.400 C 113.072 18.400,112.800 18.580,112.800 18.800 C 112.800 19.020,112.440 19.200,112.000 19.200 C 111.560 19.200,111.200 19.346,111.200 19.525 C 111.200 19.704,110.570 20.098,109.800 20.400 C 109.030 20.702,108.400 21.096,108.400 21.275 C 108.400 21.454,108.040 21.600,107.600 21.600 C 107.160 21.600,106.800 21.780,106.800 22.000 C 106.800 22.220,106.440 22.400,106.000 22.400 C 105.560 22.400,105.200 22.580,105.200 22.800 C 105.200 23.020,104.880 23.200,104.488 23.200 C 104.097 23.200,103.517 23.560,103.200 24.000 C 102.883 24.440,102.387 24.800,102.098 24.800 C 101.396 24.800,97.435 26.809,97.267 27.251 C 97.193 27.443,96.956 27.600,96.739 27.600 C 96.522 27.600,95.559 28.140,94.600 28.800 C 93.641 29.460,92.703 30.000,92.516 30.000 C 92.329 30.000,91.917 30.360,91.600 30.800 C 91.283 31.240,90.743 31.600,90.400 31.600 C 90.057 31.600,89.517 31.960,89.200 32.400 C 88.883 32.840,88.343 33.200,88.000 33.200 C 87.657 33.200,87.117 33.560,86.800 34.000 C 86.483 34.440,85.991 34.800,85.708 34.800 C 85.425 34.800,84.628 35.340,83.937 36.000 C 83.246 36.660,82.478 37.200,82.229 37.200 C 81.980 37.200,81.517 37.560,81.200 38.000 C 80.883 38.440,80.375 38.800,80.072 38.800 C 79.769 38.800,79.017 39.340,78.400 40.000 C 77.783 40.660,77.164 41.200,77.023 41.200 C 76.752 41.200,76.352 41.514,74.349 43.300 C 73.671 43.905,72.959 44.400,72.768 44.400 C 72.577 44.400,71.651 45.167,70.711 46.105 C 69.770 47.043,68.370 48.255,67.600 48.799 C 66.830 49.342,64.439 51.590,62.287 53.793 C 57.582 58.611,58.611 57.582,53.793 62.287 C 51.590 64.439,49.342 66.828,48.799 67.595 C 48.255 68.362,46.953 69.865,45.905 70.935 C 44.857 72.005,44.000 73.051,44.000 73.259 C 44.000 73.466,43.595 74.070,43.100 74.599 C 41.731 76.063,41.200 76.740,41.200 77.023 C 41.200 77.164,40.660 77.783,40.000 78.400 C 39.340 79.017,38.800 79.769,38.800 80.072 C 38.800 80.375,38.440 80.883,38.000 81.200 C 37.560 81.517,37.200 82.007,37.200 82.288 C 37.200 82.570,37.020 82.800,36.800 82.800 C 36.580 82.800,36.400 83.030,36.400 83.312 C 36.400 83.593,36.040 84.083,35.600 84.400 C 35.160 84.717,34.800 85.257,34.800 85.600 C 34.800 85.943,34.440 86.483,34.000 86.800 C 33.560 87.117,33.200 87.657,33.200 88.000 C 33.200 88.343,32.840 88.883,32.400 89.200 C 31.960 89.517,31.600 90.057,31.600 90.400 C 31.600 90.743,31.240 91.283,30.800 91.600 C 30.360 91.917,30.000 92.329,30.000 92.516 C 30.000 92.703,29.460 93.641,28.800 94.600 C 28.140 95.559,27.600 96.522,27.600 96.739 C 27.600 96.956,27.443 97.193,27.251 97.267 C 26.809 97.435,24.800 101.396,24.800 102.098 C 24.800 102.387,24.440 102.883,24.000 103.200 C 23.560 103.517,23.200 104.097,23.200 104.488 C 23.200 104.880,23.020 105.200,22.800 105.200 C 22.580 105.200,22.400 105.560,22.400 106.000 C 22.400 106.440,22.220 106.800,22.000 106.800 C 21.780 106.800,21.600 107.160,21.600 107.600 C 21.600 108.040,21.454 108.400,21.275 108.400 C 21.096 108.400,20.702 109.030,20.400 109.800 C 20.098 110.570,19.704 111.200,19.525 111.200 C 19.346 111.200,19.200 111.560,19.200 112.000 C 19.200 112.440,19.020 112.800,18.800 112.800 C 18.580 112.800,18.400 113.065,18.400 113.388 C 18.400 113.711,18.040 114.617,17.600 115.400 C 17.160 116.183,16.800 117.179,16.800 117.612 C 16.800 118.045,16.620 118.400,16.400 118.400 C 16.180 118.400,16.000 118.760,16.000 119.200 C 16.000 119.640,15.820 120.000,15.600 120.000 C 15.380 120.000,15.200 120.360,15.200 120.800 C 15.200 121.240,15.020 121.600,14.800 121.600 C 14.580 121.600,14.400 122.140,14.400 122.800 C 14.400 123.460,14.220 124.000,14.000 124.000 C 13.780 124.000,13.600 124.360,13.600 124.800 C 13.600 125.240,13.420 125.600,13.200 125.600 C 12.980 125.600,12.800 125.962,12.800 126.405 C 12.800 126.848,12.641 127.523,12.447 127.905 C 12.252 128.287,11.871 129.140,11.600 129.800 C 11.329 130.460,10.948 131.313,10.753 131.695 C 10.559 132.077,10.400 132.664,10.400 133.000 C 10.400 133.336,10.237 133.923,10.037 134.305 C 9.440 135.447,8.400 139.222,8.400 140.246 C 8.400 140.771,8.220 141.200,8.000 141.200 C 7.780 141.200,7.600 141.830,7.600 142.600 C 7.600 143.370,7.420 144.000,7.200 144.000 C 6.980 144.000,6.800 144.540,6.800 145.200 C 6.800 145.860,6.620 146.400,6.400 146.400 C 6.180 146.400,6.000 147.120,6.000 148.000 C 6.000 148.880,5.820 149.600,5.600 149.600 C 5.380 149.600,5.200 150.320,5.200 151.200 C 5.200 152.080,5.020 152.800,4.800 152.800 C 4.580 152.800,4.400 153.509,4.400 154.376 C 4.400 155.243,4.220 156.064,4.000 156.200 C 3.780 156.336,3.600 157.247,3.600 158.224 C 3.600 159.201,3.420 160.000,3.200 160.000 C 2.980 160.000,2.800 160.900,2.800 162.000 C 2.800 163.100,2.620 164.000,2.400 164.000 C 2.178 164.000,2.000 165.059,2.000 166.376 C 2.000 167.683,1.820 168.864,1.600 169.000 C 1.380 169.136,1.200 170.371,1.200 171.744 C 1.200 173.207,0.993 174.447,0.700 174.740 C 0.311 175.129,0.200 180.743,0.200 200.087 C 0.200 219.608,0.307 224.969,0.700 225.100 C 1.035 225.212,1.200 226.171,1.200 228.010 C 1.200 229.518,1.380 230.864,1.600 231.000 C 1.820 231.136,2.000 232.317,2.000 233.624 C 2.000 234.941,2.178 236.000,2.400 236.000 C 2.620 236.000,2.800 236.900,2.800 238.000 C 2.800 239.100,2.980 240.000,3.200 240.000 C 3.420 240.000,3.600 240.799,3.600 241.776 C 3.600 242.753,3.780 243.664,4.000 243.800 C 4.220 243.936,4.400 244.757,4.400 245.624 C 4.400 246.491,4.580 247.200,4.800 247.200 C 5.020 247.200,5.200 247.920,5.200 248.800 C 5.200 249.680,5.380 250.400,5.600 250.400 C 5.820 250.400,6.000 251.120,6.000 252.000 C 6.000 252.880,6.180 253.600,6.400 253.600 C 6.620 253.600,6.800 254.140,6.800 254.800 C 6.800 255.460,6.980 256.000,7.200 256.000 C 7.420 256.000,7.600 256.630,7.600 257.400 C 7.600 258.170,7.780 258.800,8.000 258.800 C 8.220 258.800,8.400 259.229,8.400 259.754 C 8.400 260.778,9.440 264.553,10.037 265.695 C 10.237 266.077,10.400 266.664,10.400 267.000 C 10.400 267.336,10.559 267.923,10.753 268.305 C 10.948 268.687,11.329 269.540,11.600 270.200 C 11.871 270.860,12.252 271.713,12.447 272.095 C 12.641 272.477,12.800 273.152,12.800 273.595 C 12.800 274.038,12.980 274.400,13.200 274.400 C 13.420 274.400,13.600 274.760,13.600 275.200 C 13.600 275.640,13.780 276.000,14.000 276.000 C 14.220 276.000,14.400 276.540,14.400 277.200 C 14.400 277.860,14.580 278.400,14.800 278.400 C 15.020 278.400,15.200 278.760,15.200 279.200 C 15.200 279.640,15.380 280.000,15.600 280.000 C 15.820 280.000,16.000 280.360,16.000 280.800 C 16.000 281.240,16.180 281.600,16.400 281.600 C 16.620 281.600,16.800 281.872,16.800 282.205 C 16.800 282.538,16.980 283.168,17.200 283.605 C 17.420 284.042,17.780 284.758,18.000 285.195 C 18.220 285.632,18.400 286.262,18.400 286.595 C 18.400 286.928,18.535 287.201,18.700 287.201 C 18.865 287.202,19.450 288.192,20.000 289.400 C 20.550 290.608,21.135 291.598,21.300 291.599 C 21.465 291.599,21.600 291.960,21.600 292.400 C 21.600 292.840,21.780 293.200,22.000 293.200 C 22.220 293.200,22.400 293.560,22.400 294.000 C 22.400 294.440,22.580 294.800,22.800 294.800 C 23.020 294.800,23.200 295.036,23.200 295.325 C 23.200 295.613,23.560 296.236,24.000 296.708 C 24.440 297.180,24.800 297.775,24.800 298.029 C 24.800 298.611,26.895 302.553,27.300 302.733 C 27.465 302.807,27.600 303.044,27.600 303.261 C 27.600 303.478,28.140 304.441,28.800 305.400 C 29.460 306.359,30.000 307.297,30.000 307.484 C 30.000 307.671,30.360 308.083,30.800 308.400 C 31.240 308.717,31.600 309.257,31.600 309.600 C 31.600 309.943,31.960 310.483,32.400 310.800 C 32.840 311.117,33.200 311.657,33.200 312.000 C 33.200 312.343,33.560 312.883,34.000 313.200 C 34.440 313.517,34.800 314.057,34.800 314.400 C 34.800 314.743,35.160 315.283,35.600 315.600 C 36.040 315.917,36.400 316.407,36.400 316.688 C 36.400 316.970,36.580 317.200,36.800 317.200 C 37.020 317.200,37.200 317.430,37.200 317.712 C 37.200 317.993,37.560 318.483,38.000 318.800 C 38.440 319.117,38.800 319.625,38.800 319.928 C 38.800 320.231,39.340 320.983,40.000 321.600 C 40.660 322.217,41.200 322.836,41.200 322.977 C 41.200 323.264,41.469 323.610,43.199 325.542 C 43.859 326.281,44.400 327.041,44.400 327.232 C 44.400 327.423,45.167 328.349,46.105 329.289 C 47.043 330.230,48.255 331.630,48.799 332.400 C 49.342 333.170,51.590 335.561,53.793 337.713 C 58.611 342.418,57.582 341.389,62.287 346.207 C 64.439 348.410,66.830 350.658,67.600 351.201 C 68.370 351.745,69.770 352.957,70.711 353.895 C 71.651 354.833,72.577 355.600,72.768 355.600 C 72.959 355.600,73.693 356.140,74.400 356.800 C 75.107 357.460,75.824 358.000,75.994 358.000 C 76.164 358.000,77.045 358.720,77.952 359.600 C 78.859 360.480,79.831 361.200,80.112 361.200 C 80.393 361.200,80.883 361.560,81.200 362.000 C 81.517 362.440,81.980 362.800,82.229 362.800 C 82.478 362.800,83.246 363.340,83.937 364.000 C 84.628 364.660,85.425 365.200,85.708 365.200 C 85.991 365.200,86.483 365.560,86.800 366.000 C 87.117 366.440,87.657 366.800,88.000 366.800 C 88.343 366.800,88.883 367.160,89.200 367.600 C 89.517 368.040,90.057 368.400,90.400 368.400 C 90.743 368.400,91.283 368.760,91.600 369.200 C 91.917 369.640,92.329 370.000,92.516 370.000 C 92.703 370.000,93.641 370.540,94.600 371.200 C 95.559 371.860,96.522 372.400,96.739 372.400 C 96.956 372.400,97.193 372.535,97.267 372.700 C 97.447 373.105,101.389 375.200,101.971 375.200 C 102.225 375.200,102.820 375.560,103.292 376.000 C 103.764 376.440,104.387 376.800,104.675 376.800 C 104.964 376.800,105.200 376.980,105.200 377.200 C 105.200 377.420,105.560 377.600,106.000 377.600 C 106.440 377.600,106.800 377.780,106.800 378.000 C 106.800 378.220,107.160 378.400,107.600 378.400 C 108.040 378.400,108.400 378.580,108.400 378.800 C 108.400 379.020,108.745 379.200,109.167 379.200 C 109.588 379.200,109.993 379.335,110.067 379.500 C 110.140 379.665,111.100 380.225,112.200 380.744 C 113.300 381.263,114.513 381.848,114.895 382.044 C 115.277 382.240,115.862 382.400,116.195 382.400 C 116.528 382.400,116.800 382.580,116.800 382.800 C 116.800 383.020,117.160 383.200,117.600 383.200 C 118.040 383.200,118.400 383.380,118.400 383.600 C 118.400 383.820,118.760 384.000,119.200 384.000 C 119.640 384.000,120.000 384.180,120.000 384.400 C 120.000 384.620,120.349 384.800,120.776 384.800 C 121.203 384.800,121.664 384.980,121.800 385.200 C 121.936 385.420,122.487 385.600,123.024 385.600 C 123.561 385.600,124.000 385.780,124.000 386.000 C 124.000 386.220,124.360 386.400,124.800 386.400 C 125.240 386.400,125.600 386.580,125.600 386.800 C 125.600 387.020,125.962 387.200,126.405 387.200 C 126.848 387.200,127.523 387.359,127.905 387.553 C 128.840 388.029,130.307 388.618,132.000 389.200 C 132.770 389.464,133.760 389.823,134.200 389.997 C 136.018 390.715,139.355 391.600,140.246 391.600 C 140.771 391.600,141.200 391.780,141.200 392.000 C 141.200 392.220,141.830 392.400,142.600 392.400 C 143.370 392.400,144.000 392.580,144.000 392.800 C 144.000 393.020,144.529 393.200,145.176 393.200 C 145.823 393.200,146.464 393.380,146.600 393.600 C 146.736 393.820,147.467 394.000,148.224 394.000 C 148.981 394.000,149.600 394.180,149.600 394.400 C 149.600 394.620,150.320 394.800,151.200 394.800 C 152.080 394.800,152.800 394.980,152.800 395.200 C 152.800 395.420,153.509 395.600,154.376 395.600 C 155.243 395.600,156.064 395.780,156.200 396.000 C 156.336 396.220,157.247 396.400,158.224 396.400 C 159.201 396.400,160.000 396.580,160.000 396.800 C 160.000 397.020,160.990 397.200,162.200 397.200 C 163.410 397.200,164.400 397.380,164.400 397.600 C 164.400 397.820,165.379 398.000,166.576 398.000 C 167.773 398.000,168.864 398.180,169.000 398.400 C 169.136 398.620,170.482 398.800,171.990 398.800 C 173.829 398.800,174.788 398.965,174.900 399.300 C 175.144 400.032,224.856 400.032,225.100 399.300 C 225.212 398.965,226.171 398.800,228.010 398.800 C 229.518 398.800,230.864 398.620,231.000 398.400 C 231.136 398.180,232.216 398.000,233.400 398.000 C 234.584 398.000,235.664 397.820,235.800 397.600 C 235.936 397.380,236.937 397.200,238.024 397.200 C 239.111 397.200,240.000 397.020,240.000 396.800 C 240.000 396.580,240.709 396.400,241.576 396.400 C 242.443 396.400,243.264 396.220,243.400 396.000 C 243.536 395.780,244.447 395.600,245.424 395.600 C 246.401 395.600,247.200 395.420,247.200 395.200 C 247.200 394.980,247.920 394.800,248.800 394.800 C 249.680 394.800,250.400 394.620,250.400 394.400 C 250.400 394.180,251.019 394.000,251.776 394.000 C 252.533 394.000,253.264 393.820,253.400 393.600 C 253.536 393.380,254.177 393.200,254.824 393.200 C 255.471 393.200,256.000 393.020,256.000 392.800 C 256.000 392.580,256.630 392.400,257.400 392.400 C 258.170 392.400,258.800 392.220,258.800 392.000 C 258.800 391.780,259.229 391.600,259.754 391.600 C 260.778 391.600,264.553 390.560,265.695 389.963 C 266.077 389.763,266.664 389.600,267.000 389.600 C 267.336 389.600,267.923 389.441,268.305 389.247 C 268.687 389.052,269.540 388.671,270.200 388.400 C 270.860 388.129,271.713 387.748,272.095 387.553 C 272.477 387.359,273.152 387.200,273.595 387.200 C 274.038 387.200,274.400 387.020,274.400 386.800 C 274.400 386.580,274.760 386.400,275.200 386.400 C 275.640 386.400,276.000 386.220,276.000 386.000 C 276.000 385.780,276.540 385.600,277.200 385.600 C 277.860 385.600,278.400 385.420,278.400 385.200 C 278.400 384.980,278.760 384.800,279.200 384.800 C 279.640 384.800,280.000 384.620,280.000 384.400 C 280.000 384.180,280.360 384.000,280.800 384.000 C 281.240 384.000,281.600 383.820,281.600 383.600 C 281.600 383.380,281.872 383.200,282.205 383.200 C 282.793 383.200,283.218 383.033,285.095 382.062 C 285.587 381.808,286.262 381.600,286.595 381.600 C 286.928 381.600,287.201 381.465,287.201 381.300 C 287.202 381.135,288.192 380.550,289.400 380.000 C 290.608 379.450,291.598 378.865,291.599 378.700 C 291.599 378.535,291.960 378.400,292.400 378.400 C 292.840 378.400,293.200 378.220,293.200 378.000 C 293.200 377.780,293.560 377.600,294.000 377.600 C 294.440 377.600,294.800 377.420,294.800 377.200 C 294.800 376.980,295.036 376.800,295.325 376.800 C 295.613 376.800,296.236 376.440,296.708 376.000 C 297.180 375.560,297.775 375.200,298.029 375.200 C 298.611 375.200,302.553 373.105,302.733 372.700 C 302.807 372.535,303.044 372.400,303.261 372.400 C 303.478 372.400,304.441 371.860,305.400 371.200 C 306.359 370.540,307.297 370.000,307.484 370.000 C 307.671 370.000,308.083 369.640,308.400 369.200 C 308.717 368.760,309.257 368.400,309.600 368.400 C 309.943 368.400,310.483 368.040,310.800 367.600 C 311.117 367.160,311.657 366.800,312.000 366.800 C 312.343 366.800,312.883 366.440,313.200 366.000 C 313.517 365.560,314.057 365.200,314.400 365.200 C 314.743 365.200,315.283 364.840,315.600 364.400 C 315.917 363.960,316.407 363.600,316.688 363.600 C 316.970 363.600,317.200 363.420,317.200 363.200 C 317.200 362.980,317.430 362.800,317.712 362.800 C 317.993 362.800,318.483 362.440,318.800 362.000 C 319.117 361.560,319.625 361.200,319.928 361.200 C 320.231 361.200,320.983 360.660,321.600 360.000 C 322.217 359.340,322.836 358.800,322.977 358.800 C 323.264 358.800,323.610 358.531,325.542 356.801 C 326.281 356.141,327.041 355.600,327.232 355.600 C 327.423 355.600,328.349 354.833,329.289 353.895 C 330.230 352.957,331.630 351.745,332.400 351.201 C 333.170 350.658,335.561 348.410,337.713 346.207 C 342.418 341.389,341.389 342.418,346.207 337.713 C 348.410 335.561,350.658 333.170,351.201 332.400 C 351.745 331.630,352.957 330.230,353.895 329.289 C 354.833 328.349,355.600 327.423,355.600 327.232 C 355.600 327.041,356.095 326.329,356.700 325.651 C 358.486 323.648,358.800 323.248,358.800 322.977 C 358.800 322.836,359.340 322.217,360.000 321.600 C 360.660 320.983,361.200 320.231,361.200 319.928 C 361.200 319.625,361.560 319.117,362.000 318.800 C 362.440 318.483,362.800 317.993,362.800 317.712 C 362.800 317.430,362.980 317.200,363.200 317.200 C 363.420 317.200,363.600 316.970,363.600 316.688 C 363.600 316.407,363.960 315.917,364.400 315.600 C 364.840 315.283,365.200 314.743,365.200 314.400 C 365.200 314.057,365.560 313.517,366.000 313.200 C 366.440 312.883,366.800 312.343,366.800 312.000 C 366.800 311.657,367.160 311.117,367.600 310.800 C 368.040 310.483,368.400 309.943,368.400 309.600 C 368.400 309.257,368.760 308.717,369.200 308.400 C 369.640 308.083,370.000 307.671,370.000 307.484 C 370.000 307.297,370.540 306.359,371.200 305.400 C 371.860 304.441,372.400 303.463,372.400 303.228 C 372.400 302.993,372.580 302.800,372.800 302.800 C 373.020 302.800,373.200 302.440,373.200 302.000 C 373.200 301.560,373.347 301.200,373.526 301.200 C 373.874 301.200,375.200 298.642,375.200 297.970 C 375.200 297.748,375.560 297.180,376.000 296.708 C 376.440 296.236,376.800 295.613,376.800 295.325 C 376.800 295.036,376.980 294.800,377.200 294.800 C 377.420 294.800,377.600 294.440,377.600 294.000 C 377.600 293.560,377.780 293.200,378.000 293.200 C 378.220 293.200,378.400 292.840,378.400 292.400 C 378.400 291.960,378.535 291.599,378.700 291.599 C 378.865 291.598,379.450 290.608,380.000 289.400 C 380.550 288.192,381.135 287.202,381.300 287.201 C 381.465 287.201,381.600 286.928,381.600 286.595 C 381.600 286.262,381.780 285.632,382.000 285.195 C 382.220 284.758,382.580 284.042,382.800 283.605 C 383.020 283.168,383.200 282.538,383.200 282.205 C 383.200 281.872,383.380 281.600,383.600 281.600 C 383.820 281.600,384.000 281.240,384.000 280.800 C 384.000 280.360,384.180 280.000,384.400 280.000 C 384.620 280.000,384.800 279.651,384.800 279.224 C 384.800 278.797,384.980 278.336,385.200 278.200 C 385.420 278.064,385.600 277.513,385.600 276.976 C 385.600 276.439,385.780 276.000,386.000 276.000 C 386.220 276.000,386.400 275.640,386.400 275.200 C 386.400 274.760,386.580 274.400,386.800 274.400 C 387.020 274.400,387.200 274.038,387.200 273.595 C 387.200 273.152,387.359 272.477,387.553 272.095 C 387.748 271.713,388.129 270.860,388.400 270.200 C 388.671 269.540,389.052 268.687,389.247 268.305 C 389.441 267.923,389.600 267.336,389.600 267.000 C 389.600 266.664,389.763 266.077,389.963 265.695 C 390.560 264.553,391.600 260.778,391.600 259.754 C 391.600 259.229,391.780 258.800,392.000 258.800 C 392.220 258.800,392.400 258.170,392.400 257.400 C 392.400 256.630,392.580 256.000,392.800 256.000 C 393.020 256.000,393.200 255.471,393.200 254.824 C 393.200 254.177,393.380 253.536,393.600 253.400 C 393.820 253.264,394.000 252.533,394.000 251.776 C 394.000 251.019,394.180 250.400,394.400 250.400 C 394.620 250.400,394.800 249.680,394.800 248.800 C 394.800 247.920,394.980 247.200,395.200 247.200 C 395.420 247.200,395.600 246.491,395.600 245.624 C 395.600 244.757,395.780 243.936,396.000 243.800 C 396.220 243.664,396.400 242.753,396.400 241.776 C 396.400 240.799,396.580 240.000,396.800 240.000 C 397.020 240.000,397.200 239.111,397.200 238.024 C 397.200 236.937,397.380 235.936,397.600 235.800 C 397.820 235.664,398.000 234.584,398.000 233.400 C 398.000 232.216,398.180 231.136,398.400 231.000 C 398.620 230.864,398.800 229.518,398.800 228.010 C 398.800 226.171,398.965 225.212,399.300 225.100 C 399.693 224.969,399.800 219.591,399.800 200.000 C 399.800 180.409,399.693 175.031,399.300 174.900 C 398.965 174.788,398.800 173.829,398.800 171.990 C 398.800 170.482,398.620 169.136,398.400 169.000 C 398.180 168.864,398.000 167.784,398.000 166.600 C 398.000 165.416,397.820 164.336,397.600 164.200 C 397.380 164.064,397.200 163.063,397.200 161.976 C 397.200 160.889,397.020 160.000,396.800 160.000 C 396.580 160.000,396.400 159.201,396.400 158.224 C 396.400 157.247,396.220 156.336,396.000 156.200 C 395.780 156.064,395.600 155.243,395.600 154.376 C 395.600 153.509,395.420 152.800,395.200 152.800 C 394.980 152.800,394.800 152.080,394.800 151.200 C 394.800 150.320,394.620 149.600,394.400 149.600 C 394.180 149.600,394.000 148.981,394.000 148.224 C 394.000 147.467,393.820 146.736,393.600 146.600 C 393.380 146.464,393.200 145.823,393.200 145.176 C 393.200 144.529,393.020 144.000,392.800 144.000 C 392.580 144.000,392.400 143.370,392.400 142.600 C 392.400 141.830,392.220 141.200,392.000 141.200 C 391.780 141.200,391.600 140.771,391.600 140.246 C 391.600 139.222,390.560 135.447,389.963 134.305 C 389.763 133.923,389.600 133.336,389.600 133.000 C 389.600 132.664,389.441 132.077,389.247 131.695 C 389.052 131.313,388.671 130.460,388.400 129.800 C 388.129 129.140,387.748 128.287,387.553 127.905 C 387.359 127.523,387.200 126.848,387.200 126.405 C 387.200 125.962,387.020 125.600,386.800 125.600 C 386.580 125.600,386.400 125.240,386.400 124.800 C 386.400 124.360,386.220 124.000,386.000 124.000 C 385.780 124.000,385.600 123.460,385.600 122.800 C 385.600 122.140,385.420 121.600,385.200 121.600 C 384.980 121.600,384.800 121.240,384.800 120.800 C 384.800 120.360,384.620 120.000,384.400 120.000 C 384.180 120.000,384.000 119.640,384.000 119.200 C 384.000 118.760,383.820 118.400,383.600 118.400 C 383.380 118.400,383.200 118.040,383.200 117.600 C 383.200 117.160,383.020 116.800,382.800 116.800 C 382.580 116.800,382.400 116.361,382.400 115.824 C 382.400 115.287,382.220 114.736,382.000 114.600 C 381.780 114.464,381.600 114.003,381.600 113.576 C 381.600 113.149,381.420 112.800,381.200 112.800 C 380.980 112.800,380.800 112.440,380.800 112.000 C 380.800 111.560,380.654 111.200,380.475 111.200 C 380.296 111.200,379.902 110.570,379.600 109.800 C 379.298 109.030,378.904 108.400,378.725 108.400 C 378.546 108.400,378.400 108.040,378.400 107.600 C 378.400 107.160,378.220 106.800,378.000 106.800 C 377.780 106.800,377.600 106.440,377.600 106.000 C 377.600 105.560,377.420 105.200,377.200 105.200 C 376.980 105.200,376.800 104.964,376.800 104.675 C 376.800 104.387,376.440 103.764,376.000 103.292 C 375.560 102.820,375.200 102.240,375.200 102.003 C 375.200 101.371,373.157 97.422,372.749 97.267 C 372.557 97.193,372.400 96.956,372.400 96.739 C 372.400 96.522,371.860 95.559,371.200 94.600 C 370.540 93.641,370.000 92.703,370.000 92.516 C 370.000 92.329,369.640 91.917,369.200 91.600 C 368.760 91.283,368.400 90.743,368.400 90.400 C 368.400 90.057,368.040 89.517,367.600 89.200 C 367.160 88.883,366.800 88.343,366.800 88.000 C 366.800 87.657,366.440 87.117,366.000 86.800 C 365.560 86.483,365.200 85.943,365.200 85.600 C 365.200 85.257,364.840 84.717,364.400 84.400 C 363.960 84.083,363.600 83.620,363.600 83.371 C 363.600 83.122,363.060 82.354,362.400 81.663 C 361.740 80.972,361.200 80.208,361.200 79.964 C 361.200 79.720,360.660 79.017,360.000 78.400 C 359.340 77.783,358.800 77.164,358.800 77.023 C 358.800 76.752,358.486 76.352,356.700 74.349 C 356.095 73.671,355.600 72.959,355.600 72.768 C 355.600 72.577,354.833 71.651,353.895 70.711 C 352.957 69.770,351.745 68.370,351.201 67.600 C 350.658 66.830,348.410 64.439,346.207 62.287 C 341.389 57.582,342.418 58.611,337.713 53.793 C 335.561 51.590,333.172 49.342,332.405 48.799 C 331.638 48.255,330.135 46.953,329.065 45.905 C 327.995 44.857,326.949 44.000,326.741 44.000 C 326.534 44.000,325.930 43.595,325.401 43.100 C 323.937 41.731,323.260 41.200,322.977 41.200 C 322.836 41.200,322.217 40.660,321.600 40.000 C 320.983 39.340,320.280 38.800,320.036 38.800 C 319.792 38.800,319.028 38.260,318.337 37.600 C 317.646 36.940,316.878 36.400,316.629 36.400 C 316.380 36.400,315.917 36.040,315.600 35.600 C 315.283 35.160,314.743 34.800,314.400 34.800 C 314.057 34.800,313.517 34.440,313.200 34.000 C 312.883 33.560,312.343 33.200,312.000 33.200 C 311.657 33.200,311.117 32.840,310.800 32.400 C 310.483 31.960,309.943 31.600,309.600 31.600 C 309.257 31.600,308.717 31.240,308.400 30.800 C 308.083 30.360,307.671 30.000,307.484 30.000 C 307.297 30.000,306.359 29.460,305.400 28.800 C 304.441 28.140,303.478 27.600,303.261 27.600 C 303.044 27.600,302.807 27.465,302.733 27.300 C 302.553 26.895,298.611 24.800,298.029 24.800 C 297.775 24.800,297.180 24.440,296.708 24.000 C 296.236 23.560,295.613 23.200,295.325 23.200 C 295.036 23.200,294.800 23.020,294.800 22.800 C 294.800 22.580,294.440 22.400,294.000 22.400 C 293.560 22.400,293.200 22.220,293.200 22.000 C 293.200 21.780,292.840 21.600,292.400 21.600 C 291.960 21.600,291.600 21.454,291.600 21.275 C 291.600 21.096,290.970 20.702,290.200 20.400 C 289.430 20.098,288.800 19.704,288.800 19.525 C 288.800 19.346,288.440 19.200,288.000 19.200 C 287.560 19.200,287.200 19.020,287.200 18.800 C 287.200 18.580,286.928 18.400,286.595 18.400 C 286.007 18.400,285.582 18.233,283.705 17.262 C 283.213 17.008,282.538 16.800,282.205 16.800 C 281.872 16.800,281.600 16.620,281.600 16.400 C 281.600 16.180,281.240 16.000,280.800 16.000 C 280.360 16.000,280.000 15.820,280.000 15.600 C 280.000 15.380,279.640 15.200,279.200 15.200 C 278.760 15.200,278.400 15.020,278.400 14.800 C 278.400 14.580,277.860 14.400,277.200 14.400 C 276.540 14.400,276.000 14.220,276.000 14.000 C 276.000 13.780,275.640 13.600,275.200 13.600 C 274.760 13.600,274.400 13.420,274.400 13.200 C 274.400 12.980,274.038 12.800,273.595 12.800 C 273.152 12.800,272.477 12.641,272.095 12.447 C 271.713 12.252,270.860 11.871,270.200 11.600 C 269.540 11.329,268.687 10.948,268.305 10.753 C 267.923 10.559,267.336 10.400,267.000 10.400 C 266.664 10.400,266.077 10.237,265.695 10.037 C 264.553 9.440,260.778 8.400,259.754 8.400 C 259.229 8.400,258.800 8.220,258.800 8.000 C 258.800 7.780,258.170 7.600,257.400 7.600 C 256.630 7.600,256.000 7.420,256.000 7.200 C 256.000 6.980,255.460 6.800,254.800 6.800 C 254.140 6.800,253.600 6.620,253.600 6.400 C 253.600 6.180,252.880 6.000,252.000 6.000 C 251.120 6.000,250.400 5.820,250.400 5.600 C 250.400 5.380,249.680 5.200,248.800 5.200 C 247.920 5.200,247.200 5.020,247.200 4.800 C 247.200 4.580,246.491 4.400,245.624 4.400 C 244.757 4.400,243.936 4.220,243.800 4.000 C 243.664 3.780,242.753 3.600,241.776 3.600 C 240.799 3.600,240.000 3.420,240.000 3.200 C 240.000 2.980,239.100 2.800,238.000 2.800 C 236.900 2.800,236.000 2.620,236.000 2.400 C 236.000 2.178,234.941 2.000,233.624 2.000 C 232.317 2.000,231.136 1.820,231.000 1.600 C 230.864 1.380,229.518 1.200,228.010 1.200 C 226.193 1.200,225.211 1.034,225.103 0.708 C 224.941 0.222,187.291 -0.126,178.300 0.275 M213.326 16.213 C 226.833 17.292,238.672 19.326,249.500 22.428 C 250.215 22.632,251.475 22.995,252.300 23.233 C 253.125 23.471,254.297 23.762,254.905 23.879 C 255.513 23.996,256.108 24.251,256.229 24.446 C 256.349 24.641,256.876 24.800,257.400 24.800 C 257.924 24.800,258.464 24.980,258.600 25.200 C 258.736 25.420,259.251 25.600,259.744 25.600 C 260.237 25.600,260.811 25.743,261.020 25.918 C 261.229 26.093,262.120 26.465,263.000 26.745 C 263.880 27.024,265.050 27.445,265.600 27.680 C 266.150 27.915,267.005 28.263,267.500 28.454 C 273.530 30.775,283.791 35.621,289.300 38.748 C 290.125 39.217,291.475 39.981,292.300 40.447 C 293.125 40.913,294.278 41.633,294.862 42.047 C 295.446 42.461,296.046 42.800,296.195 42.800 C 297.135 42.800,316.692 56.854,317.443 58.069 C 317.704 58.492,316.154 59.920,310.327 64.627 C 307.757 66.704,305.417 68.634,305.127 68.918 C 304.837 69.201,304.221 69.695,303.757 70.016 C 303.294 70.337,302.034 71.341,300.957 72.247 C 298.475 74.336,290.652 80.746,285.200 85.158 C 282.890 87.027,280.353 89.106,279.563 89.778 C 278.772 90.450,277.779 91.270,277.357 91.600 C 275.958 92.691,272.204 95.785,272.000 96.014 C 271.890 96.137,268.920 98.566,265.400 101.411 C 261.880 104.255,258.940 106.722,258.867 106.891 C 258.682 107.318,257.044 107.280,256.580 106.838 C 254.116 104.488,238.612 97.553,231.400 95.574 C 230.740 95.393,229.480 95.043,228.600 94.796 C 208.608 89.184,185.445 89.859,165.236 96.642 C 157.567 99.216,147.110 104.145,142.738 107.247 C 142.154 107.661,141.479 108.000,141.238 108.000 C 140.997 108.000,140.800 108.180,140.800 108.400 C 140.800 108.620,140.575 108.800,140.300 108.800 C 140.025 108.801,139.321 109.206,138.736 109.700 C 138.150 110.195,136.537 111.410,135.151 112.400 C 127.189 118.087,116.848 128.543,111.590 136.225 C 110.846 137.311,110.016 138.426,109.745 138.702 C 109.474 138.979,109.138 139.564,108.999 140.002 C 108.860 140.441,108.578 140.800,108.373 140.800 C 108.168 140.800,108.000 140.997,108.000 141.238 C 108.000 141.479,107.661 142.154,107.247 142.738 C 102.235 149.803,96.775 163.116,93.604 176.000 C 90.128 190.126,90.138 209.952,93.630 224.100 C 94.550 227.831,94.831 228.840,95.994 232.600 C 98.658 241.213,104.658 254.456,107.100 257.113 C 107.375 257.412,107.600 257.806,107.600 257.988 C 107.600 258.461,112.469 265.225,115.527 269.000 C 120.802 275.513,129.353 283.508,137.000 289.078 C 139.462 290.871,140.822 291.730,146.200 294.887 C 192.123 321.846,254.822 309.074,287.024 266.200 C 293.425 257.678,300.944 244.178,301.871 239.545 L 302.099 238.403 253.150 238.302 L 204.200 238.200 204.098 201.900 L 203.996 165.600 292.174 165.600 C 362.118 165.600,380.416 165.703,380.661 166.098 C 380.830 166.372,381.087 167.407,381.231 168.398 C 381.375 169.389,381.772 172.090,382.112 174.400 C 382.453 176.710,382.956 180.580,383.232 183.000 C 383.896 188.840,383.913 211.652,383.258 217.200 C 382.365 224.751,381.461 230.995,380.797 234.200 C 380.614 235.080,380.243 236.880,379.973 238.200 C 375.883 258.142,367.829 278.178,356.426 296.782 C 353.202 302.043,352.059 303.709,346.848 310.751 C 340.170 319.776,327.990 332.763,319.600 339.803 C 317.510 341.556,315.738 343.135,315.662 343.310 C 315.544 343.583,309.504 348.232,306.956 350.011 C 302.711 352.974,296.374 357.200,296.174 357.200 C 296.036 357.200,295.427 357.554,294.820 357.986 C 292.366 359.733,278.203 367.041,273.593 368.938 C 272.607 369.344,271.260 369.914,270.600 370.204 C 269.940 370.495,268.140 371.214,266.600 371.803 C 265.060 372.392,263.440 373.030,263.000 373.221 C 261.719 373.779,253.604 376.425,251.200 377.070 C 235.421 381.300,225.904 382.869,209.141 384.003 C 190.941 385.235,164.252 382.102,148.000 376.825 C 146.790 376.432,144.450 375.694,142.800 375.183 C 141.150 374.673,139.629 374.108,139.420 373.928 C 139.211 373.748,138.714 373.600,138.315 373.600 C 137.916 373.600,137.277 373.441,136.895 373.247 C 136.020 372.802,134.695 372.259,132.400 371.404 C 131.410 371.036,130.060 370.496,129.400 370.205 C 128.740 369.914,127.390 369.344,126.400 368.938 C 123.706 367.834,112.378 362.203,109.935 360.754 C 107.808 359.493,106.476 358.723,103.781 357.196 C 99.993 355.050,86.196 345.260,83.966 343.136 C 83.655 342.839,82.414 341.787,81.209 340.798 C 74.749 335.494,64.506 325.251,59.202 318.791 C 58.213 317.586,57.161 316.345,56.864 316.034 C 54.772 313.838,42.800 296.941,42.800 296.184 C 42.800 296.052,42.260 295.159,41.600 294.200 C 40.940 293.241,40.400 292.361,40.400 292.246 C 40.400 292.130,39.835 291.082,39.144 289.918 C 37.121 286.508,30.400 272.879,30.400 272.186 C 30.400 272.079,30.022 271.138,29.560 270.096 C 28.299 267.249,28.098 266.741,27.543 265.000 C 27.263 264.120,26.923 263.220,26.789 263.000 C 26.654 262.780,26.300 261.790,26.002 260.800 C 25.705 259.810,25.312 258.829,25.130 258.620 C 24.949 258.411,24.800 257.837,24.800 257.344 C 24.800 256.851,24.641 256.349,24.446 256.229 C 24.251 256.108,23.996 255.513,23.879 254.905 C 23.762 254.297,23.471 253.125,23.233 252.300 C 19.129 238.080,17.150 226.685,16.017 210.741 C 14.689 192.070,17.134 169.076,22.412 150.600 C 22.601 149.940,22.960 148.680,23.210 147.800 C 23.461 146.920,23.762 145.703,23.879 145.095 C 23.996 144.487,24.251 143.892,24.446 143.771 C 24.641 143.651,24.800 143.124,24.800 142.600 C 24.800 142.076,24.980 141.536,25.200 141.400 C 25.420 141.264,25.600 140.801,25.600 140.371 C 25.600 139.941,25.759 139.277,25.953 138.895 C 26.429 137.960,27.018 136.493,27.600 134.800 C 28.206 133.035,28.515 132.263,29.560 129.904 C 30.022 128.862,30.400 127.918,30.400 127.806 C 30.400 127.560,32.451 123.139,34.949 118.000 C 36.802 114.189,38.544 110.959,40.557 107.600 C 41.150 106.610,41.738 105.485,41.864 105.100 C 41.990 104.715,42.252 104.400,42.447 104.400 C 42.641 104.400,42.800 104.215,42.800 103.988 C 42.800 103.147,54.514 86.316,56.607 84.151 C 56.846 83.903,57.662 82.939,58.421 82.008 C 64.166 74.953,75.936 63.313,83.600 57.106 C 89.093 52.657,103.030 42.800,103.826 42.800 C 103.964 42.800,104.554 42.461,105.138 42.047 C 106.186 41.304,107.076 40.781,111.800 38.134 C 115.454 36.087,123.299 32.298,128.400 30.117 C 131.486 28.797,132.310 28.474,135.800 27.207 C 137.120 26.728,138.513 26.170,138.895 25.968 C 139.277 25.766,139.941 25.600,140.371 25.600 C 140.801 25.600,141.264 25.420,141.400 25.200 C 141.536 24.980,142.076 24.800,142.600 24.800 C 143.124 24.800,143.651 24.641,143.771 24.446 C 143.892 24.251,144.487 23.996,145.095 23.879 C 145.703 23.762,146.875 23.471,147.700 23.233 C 148.525 22.995,149.785 22.632,150.500 22.428 C 170.001 16.842,192.874 14.579,213.326 16.213 " stroke="none" fill="#fbfbfb" fill-rule="evenodd"></path><path id="path4" d="M188.400 16.027 C 174.159 17.097,161.855 19.175,150.500 22.428 C 149.785 22.632,148.525 22.995,147.700 23.233 C 146.875 23.471,145.703 23.762,145.095 23.879 C 144.487 23.996,143.892 24.251,143.771 24.446 C 143.651 24.641,143.124 24.800,142.600 24.800 C 142.076 24.800,141.536 24.980,141.400 25.200 C 141.264 25.420,140.801 25.600,140.371 25.600 C 139.941 25.600,139.277 25.766,138.895 25.968 C 138.513 26.170,137.120 26.728,135.800 27.207 C 131.663 28.709,129.809 29.464,125.000 31.607 C 118.244 34.618,108.078 39.962,105.138 42.047 C 104.554 42.461,103.964 42.800,103.826 42.800 C 103.030 42.800,89.093 52.657,83.600 57.106 C 75.936 63.313,64.166 74.953,58.421 82.008 C 57.662 82.939,56.846 83.903,56.607 84.151 C 54.514 86.316,42.800 103.147,42.800 103.988 C 42.800 104.215,42.641 104.400,42.447 104.400 C 42.252 104.400,41.990 104.715,41.864 105.100 C 41.738 105.485,41.150 106.610,40.557 107.600 C 38.544 110.959,36.802 114.189,34.949 118.000 C 32.451 123.139,30.400 127.560,30.400 127.806 C 30.400 127.918,30.022 128.862,29.560 129.904 C 28.515 132.263,28.206 133.035,27.600 134.800 C 27.018 136.493,26.429 137.960,25.953 138.895 C 25.759 139.277,25.600 139.941,25.600 140.371 C 25.600 140.801,25.420 141.264,25.200 141.400 C 24.980 141.536,24.800 142.076,24.800 142.600 C 24.800 143.124,24.641 143.651,24.446 143.771 C 24.251 143.892,23.996 144.487,23.879 145.095 C 23.762 145.703,23.461 146.920,23.210 147.800 C 22.960 148.680,22.601 149.940,22.412 150.600 C 17.134 169.076,14.689 192.070,16.017 210.741 C 17.150 226.685,19.129 238.080,23.233 252.300 C 23.471 253.125,23.762 254.297,23.879 254.905 C 23.996 255.513,24.251 256.108,24.446 256.229 C 24.641 256.349,24.800 256.851,24.800 257.344 C 24.800 257.837,24.949 258.411,25.130 258.620 C 25.312 258.829,25.705 259.810,26.002 260.800 C 26.300 261.790,26.654 262.780,26.789 263.000 C 26.923 263.220,27.263 264.120,27.543 265.000 C 28.098 266.741,28.299 267.249,29.560 270.096 C 30.022 271.138,30.400 272.079,30.400 272.186 C 30.400 272.879,37.121 286.508,39.144 289.918 C 39.835 291.082,40.400 292.130,40.400 292.246 C 40.400 292.361,40.940 293.241,41.600 294.200 C 42.260 295.159,42.800 296.052,42.800 296.184 C 42.800 296.941,54.772 313.838,56.864 316.034 C 57.161 316.345,58.212 317.590,59.200 318.800 C 61.359 321.445,61.874 322.000,62.163 322.000 C 62.284 322.000,60.848 320.164,58.971 317.919 C 52.818 310.561,46.717 301.995,41.934 294.000 C 39.981 290.736,39.562 289.944,35.420 281.675 C 32.879 276.601,28.400 266.229,28.400 265.418 C 28.400 265.104,28.256 264.758,28.079 264.649 C 27.903 264.540,27.507 263.528,27.200 262.400 C 26.893 261.272,26.497 260.260,26.321 260.151 C 26.144 260.042,26.000 259.524,26.000 259.000 C 26.000 258.476,25.820 257.936,25.600 257.800 C 25.380 257.664,25.200 257.201,25.200 256.771 C 25.200 256.341,25.038 255.677,24.839 255.295 C 24.640 254.913,24.260 253.790,23.993 252.800 C 23.726 251.810,23.369 250.550,23.200 250.000 C 22.831 248.798,22.071 245.961,21.567 243.900 C 21.365 243.075,21.033 241.725,20.830 240.900 C 20.367 239.023,19.306 233.400,18.434 228.200 C 18.003 225.625,17.430 220.696,16.795 214.084 C 16.285 208.772,16.285 191.228,16.795 185.916 C 17.421 179.397,18.001 174.388,18.416 171.900 C 19.155 167.474,19.669 164.584,20.069 162.600 C 20.448 160.725,20.645 159.867,21.567 156.100 C 22.071 154.039,22.831 151.202,23.200 150.000 C 23.369 149.450,23.726 148.190,23.993 147.200 C 24.260 146.210,24.640 145.087,24.839 144.705 C 25.038 144.323,25.200 143.659,25.200 143.229 C 25.200 142.799,25.380 142.336,25.600 142.200 C 25.820 142.064,26.000 141.601,26.000 141.171 C 26.000 140.741,26.171 140.077,26.381 139.695 C 26.591 139.313,27.155 137.830,27.635 136.400 C 30.049 129.205,37.231 113.985,41.947 106.068 C 45.387 100.294,53.882 87.957,55.216 86.800 C 55.343 86.690,55.706 86.221,56.023 85.757 C 59.220 81.086,72.533 67.220,79.796 60.996 C 81.334 59.678,82.834 58.372,83.130 58.094 C 83.427 57.816,84.329 57.097,85.135 56.496 C 85.941 55.896,86.690 55.312,86.800 55.200 C 88.235 53.731,104.729 42.400,105.432 42.400 C 105.567 42.400,106.185 42.038,106.807 41.595 C 112.408 37.607,130.140 29.527,141.400 25.832 C 147.875 23.707,149.633 23.167,152.800 22.330 C 162.122 19.865,169.198 18.567,181.000 17.156 C 191.312 15.923,214.345 16.352,225.600 17.987 C 230.446 18.691,232.616 19.076,239.100 20.383 C 240.710 20.707,247.625 22.450,251.800 23.584 C 263.344 26.720,286.344 36.740,293.262 41.647 C 293.846 42.061,294.429 42.400,294.558 42.400 C 294.911 42.400,303.884 48.249,306.400 50.119 C 307.610 51.018,309.586 52.485,310.791 53.377 C 315.071 56.548,316.800 57.990,316.800 58.391 C 316.800 58.566,315.495 59.762,313.900 61.049 C 312.305 62.335,310.640 63.693,310.200 64.067 C 309.760 64.440,307.150 66.576,304.400 68.812 C 301.650 71.049,298.950 73.270,298.400 73.746 C 297.850 74.223,295.510 76.138,293.200 78.002 C 290.890 79.866,288.640 81.695,288.200 82.068 C 287.760 82.440,285.150 84.580,282.400 86.822 C 279.650 89.063,276.680 91.492,275.800 92.218 C 266.350 100.017,257.977 106.800,257.802 106.800 C 257.682 106.800,256.843 106.332,255.938 105.761 C 247.580 100.485,234.255 95.343,221.800 92.588 C 210.335 90.052,195.264 89.809,181.800 91.942 C 179.083 92.373,178.353 92.527,173.600 93.674 C 140.202 101.733,110.855 127.268,98.406 159.100 C 97.482 161.465,96.574 163.760,96.389 164.200 C 95.528 166.247,94.400 169.937,94.400 170.703 C 94.400 171.170,94.239 171.652,94.042 171.774 C 93.845 171.895,93.587 172.671,93.468 173.497 C 93.349 174.324,93.051 175.900,92.805 177.000 C 89.486 191.848,89.783 211.241,93.560 226.200 C 93.782 227.080,94.076 228.340,94.212 229.000 C 94.349 229.660,94.608 230.560,94.788 231.000 C 94.968 231.440,95.602 233.365,96.198 235.279 C 96.793 237.192,97.547 239.082,97.873 239.479 C 98.436 240.164,98.452 240.160,98.203 239.400 C 96.811 235.160,94.678 228.303,94.376 227.100 C 93.438 223.357,93.234 222.464,92.852 220.400 C 90.317 206.718,90.317 193.282,92.852 179.600 C 95.119 167.364,101.660 150.614,107.247 142.738 C 107.661 142.154,108.000 141.479,108.000 141.238 C 108.000 140.997,108.168 140.800,108.373 140.800 C 108.578 140.800,108.860 140.441,108.999 140.002 C 109.138 139.564,109.474 138.979,109.745 138.702 C 110.016 138.426,110.846 137.311,111.590 136.225 C 116.848 128.543,127.189 118.087,135.151 112.400 C 136.537 111.410,138.150 110.195,138.736 109.700 C 139.321 109.206,140.025 108.801,140.300 108.800 C 140.575 108.800,140.800 108.620,140.800 108.400 C 140.800 108.180,140.997 108.000,141.238 108.000 C 141.479 108.000,142.154 107.661,142.738 107.247 C 147.110 104.145,157.567 99.216,165.236 96.642 C 185.445 89.859,208.608 89.184,228.600 94.796 C 229.480 95.043,230.740 95.393,231.400 95.574 C 238.612 97.553,254.116 104.488,256.580 106.838 C 257.044 107.280,258.682 107.318,258.867 106.891 C 258.940 106.722,261.880 104.255,265.400 101.411 C 268.920 98.566,271.890 96.137,272.000 96.014 C 272.204 95.785,275.958 92.691,277.357 91.600 C 277.779 91.270,278.772 90.450,279.563 89.778 C 280.353 89.106,282.890 87.027,285.200 85.158 C 290.652 80.746,298.475 74.336,300.957 72.247 C 302.034 71.341,303.294 70.337,303.757 70.016 C 304.221 69.695,304.837 69.201,305.127 68.918 C 305.417 68.634,307.757 66.704,310.327 64.627 C 316.154 59.920,317.704 58.492,317.443 58.069 C 316.692 56.854,297.135 42.800,296.195 42.800 C 296.046 42.800,295.446 42.461,294.862 42.047 C 294.278 41.633,293.125 40.913,292.300 40.447 C 291.475 39.981,290.125 39.217,289.300 38.748 C 283.791 35.621,273.530 30.775,267.500 28.454 C 267.005 28.263,266.150 27.915,265.600 27.680 C 265.050 27.445,263.880 27.024,263.000 26.745 C 262.120 26.465,261.229 26.093,261.020 25.918 C 260.811 25.743,260.237 25.600,259.744 25.600 C 259.251 25.600,258.736 25.420,258.600 25.200 C 258.464 24.980,257.924 24.800,257.400 24.800 C 256.876 24.800,256.349 24.641,256.229 24.446 C 256.108 24.251,255.513 23.996,254.905 23.879 C 254.297 23.762,253.125 23.471,252.300 23.233 C 248.802 22.223,248.045 22.015,245.000 21.223 C 228.240 16.866,205.279 14.758,188.400 16.027 M100.000 244.540 C 100.000 245.029,104.444 253.689,104.610 253.523 C 104.751 253.382,100.585 244.868,100.162 244.433 C 100.073 244.342,100.000 244.390,100.000 244.540 M105.160 254.600 C 105.834 255.905,106.388 256.628,106.385 256.200 C 106.383 255.980,106.014 255.350,105.564 254.800 C 105.021 254.136,104.885 254.069,105.160 254.600 M106.647 257.300 C 107.422 258.616,111.026 263.917,111.765 264.829 C 112.224 265.394,113.050 266.467,113.600 267.213 C 117.997 273.172,128.378 283.348,134.400 287.600 C 135.170 288.144,136.117 288.861,136.506 289.194 C 138.976 291.315,153.387 299.546,153.839 299.095 C 153.934 298.999,152.524 298.171,150.706 297.254 C 148.888 296.337,146.860 295.271,146.200 294.884 C 141.012 291.848,139.458 290.868,137.000 289.078 C 129.353 283.508,120.802 275.513,115.527 269.000 C 112.177 264.864,107.721 258.613,107.398 257.595 C 107.260 257.158,106.968 256.800,106.749 256.800 C 106.531 256.800,106.485 257.025,106.647 257.300 M253.500 295.029 C 251.949 295.870,252.125 296.161,253.700 295.359 C 255.208 294.593,255.475 294.394,254.967 294.416 C 254.765 294.425,254.105 294.701,253.500 295.029 M248.693 297.520 C 247.204 298.289,246.060 298.994,246.152 299.085 C 246.346 299.279,252.000 296.485,252.000 296.195 C 252.000 295.869,251.510 296.065,248.693 297.520 M243.600 300.000 C 242.830 300.422,242.313 300.774,242.451 300.783 C 242.865 300.811,245.600 299.605,245.600 299.395 C 245.600 299.046,245.025 299.220,243.600 300.000 M160.128 301.884 C 160.271 302.115,160.796 302.397,161.294 302.511 C 161.792 302.625,163.280 303.120,164.600 303.611 C 165.920 304.102,167.540 304.646,168.200 304.818 C 179.377 307.745,184.201 308.643,190.400 308.951 L 194.200 309.140 190.800 308.759 C 179.401 307.484,169.051 305.084,160.634 301.766 C 160.137 301.570,159.960 301.611,160.128 301.884 M234.600 303.363 C 231.960 304.282,228.000 305.446,225.800 305.949 C 223.600 306.452,221.149 307.029,220.354 307.232 C 219.558 307.434,218.298 307.613,217.554 307.628 C 216.809 307.644,215.840 307.820,215.400 308.020 C 213.412 308.925,223.847 307.079,228.800 305.649 C 229.570 305.427,230.830 305.078,231.600 304.875 C 232.370 304.671,234.080 304.102,235.400 303.611 C 236.720 303.120,238.208 302.625,238.706 302.511 C 239.541 302.321,240.456 301.542,239.724 301.646 C 239.546 301.671,237.240 302.443,234.600 303.363 M207.800 308.822 C 206.858 309.004,207.845 309.043,210.200 308.918 C 212.400 308.800,214.275 308.636,214.367 308.552 C 214.657 308.287,209.468 308.500,207.800 308.822 M197.500 309.496 C 198.875 309.574,201.125 309.574,202.500 309.496 C 203.875 309.418,202.750 309.354,200.000 309.354 C 197.250 309.354,196.125 309.418,197.500 309.496 M65.130 325.400 C 67.944 328.604,72.770 333.387,75.830 336.005 C 76.726 336.772,75.736 335.712,73.630 333.648 C 71.523 331.585,68.117 328.165,66.059 326.048 C 62.438 322.323,62.409 322.302,65.130 325.400 M78.000 337.837 C 78.000 338.126,78.555 338.641,81.200 340.800 C 82.410 341.788,83.655 342.839,83.966 343.136 C 86.196 345.260,99.993 355.050,103.781 357.196 C 106.363 358.659,107.778 359.475,109.800 360.669 C 112.781 362.429,122.446 367.287,122.620 367.113 C 122.703 367.030,120.213 365.671,117.086 364.093 C 104.722 357.855,92.791 349.996,82.100 341.048 C 79.845 339.161,78.000 337.716,78.000 337.837 M313.137 344.910 C 311.962 345.850,310.055 347.327,308.900 348.192 C 306.948 349.654,306.140 350.440,307.300 349.750 C 308.335 349.133,315.600 343.563,315.600 343.385 C 315.600 343.007,315.223 343.240,313.137 344.910 M302.400 352.649 C 296.848 356.447,288.971 361.071,282.711 364.207 C 279.692 365.719,277.288 367.022,277.369 367.102 C 277.665 367.398,292.443 359.679,294.820 357.986 C 295.427 357.554,296.036 357.200,296.174 357.200 C 296.569 357.200,305.907 350.874,306.192 350.414 C 306.570 349.801,306.517 349.833,302.400 352.649 M129.020 369.933 C 129.526 370.376,133.587 372.003,134.153 371.989 C 134.564 371.979,129.265 369.600,128.832 369.600 C 128.726 369.600,128.811 369.750,129.020 369.933 M266.200 371.600 C 264.660 372.237,263.594 372.768,263.831 372.779 C 264.256 372.800,269.243 370.870,269.567 370.560 C 269.982 370.162,268.780 370.533,266.200 371.600 M137.000 373.200 C 137.136 373.420,137.642 373.587,138.124 373.572 C 138.969 373.545,138.971 373.531,138.200 373.200 C 137.099 372.727,136.708 372.727,137.000 373.200 M259.200 374.074 C 253.161 376.234,243.033 378.974,236.493 380.216 C 234.455 380.603,232.866 381.000,232.964 381.097 C 233.326 381.459,241.750 379.596,251.200 377.064 C 254.623 376.147,262.557 373.497,262.980 373.130 C 263.610 372.583,262.805 372.784,259.200 374.074 M139.420 373.928 C 139.629 374.108,141.150 374.673,142.800 375.183 C 144.450 375.694,146.790 376.432,148.000 376.825 C 151.331 377.907,162.037 380.454,162.543 380.286 C 162.787 380.204,161.550 379.812,159.794 379.415 C 152.897 377.853,147.393 376.329,142.232 374.553 C 139.217 373.515,138.846 373.433,139.420 373.928 M164.200 380.800 C 164.860 380.968,165.850 381.109,166.400 381.113 L 167.400 381.120 166.400 380.800 C 165.850 380.624,164.860 380.483,164.200 380.487 L 163.000 380.495 164.200 380.800 M169.000 381.623 C 171.137 382.065,172.604 382.050,171.200 381.600 C 170.650 381.424,169.570 381.283,168.800 381.286 L 167.400 381.292 169.000 381.623 M229.000 381.600 L 227.800 381.905 229.000 381.905 C 229.660 381.905,230.740 381.768,231.400 381.600 L 232.600 381.295 231.400 381.295 C 230.740 381.295,229.660 381.432,229.000 381.600 M173.800 382.400 C 174.460 382.568,175.720 382.706,176.600 382.707 L 178.200 382.708 176.600 382.377 C 175.720 382.195,174.460 382.057,173.800 382.070 L 172.600 382.095 173.800 382.400 M223.200 382.400 L 221.800 382.695 223.400 382.700 C 224.280 382.703,225.540 382.568,226.200 382.400 L 227.400 382.095 226.000 382.100 C 225.230 382.103,223.970 382.238,223.200 382.400 M180.400 383.220 C 181.390 383.397,183.100 383.530,184.200 383.517 L 186.200 383.493 184.200 383.182 C 183.100 383.010,181.390 382.877,180.400 382.885 L 178.600 382.900 180.400 383.220 M215.600 383.200 L 213.800 383.480 215.600 383.510 C 216.590 383.527,218.210 383.397,219.200 383.220 L 221.000 382.900 219.200 382.910 C 218.210 382.916,216.590 383.046,215.600 383.200 M191.000 384.023 C 194.693 384.389,203.737 384.394,208.000 384.032 C 210.230 383.843,207.410 383.744,199.800 383.745 C 193.054 383.745,189.372 383.862,191.000 384.023 " stroke="none" fill="#edc6a3" fill-rule="evenodd"></path></g></svg>